<svg width="300" height="150" viewBox="0 0 300 150" fill="none" xmlns="http://www.w3.org/2000/svg">
<path d="M0 117.233H29.8544V146.359H0V117.233Z" fill="black"/>
<path d="M45.874 0H73.5439V146.359H45.874V0Z" fill="black"/>
<path d="M154.515 135.082H154.107C148.846 143.1 141.374 149.272 123.572 149.272C102.334 149.272 87.3784 137.955 87.3784 116.97C87.3784 93.7244 105.985 86.3181 129.026 83.0303C146.215 80.5615 154.096 79.1194 154.096 71.1017C154.096 63.0839 148.234 58.5501 136.714 58.5501C123.776 58.5501 117.506 63.2801 116.689 73.3628H92.2201C93.0252 54.847 106.575 38.5923 136.906 38.5923C167.238 38.5923 180.583 52.7935 180.583 77.4698V131.16C180.583 139.189 181.797 143.919 184.223 145.765V146.792H157.736C156.114 144.738 155.105 139.801 154.504 135.071L154.515 135.082ZM154.72 109.575V93.736C149.867 96.62 142.383 98.2582 135.512 99.9079C121.157 103.196 114.081 106.495 114.081 116.37C114.081 126.245 120.556 129.741 130.262 129.741C146.034 129.741 154.731 119.866 154.731 109.575H154.72Z" fill="black"/>
<path d="M225.018 133.755H224.609V146.901H198.058V0H225.621V54.2438H226.223C231.906 45.4067 240.817 38.632 255.206 38.632C281.348 38.632 300 61.4448 300 94.316C300 127.187 282.167 150 256.013 150C241.419 150 231.088 143.629 225.007 133.766L225.018 133.755ZM272.039 94.3045C272.039 74.7869 264.333 61.2259 248.932 61.2259C231.497 61.2259 225.018 75.3975 225.018 94.9266C225.018 114.456 234.543 126.565 249.955 126.565C264.14 126.565 272.051 114.652 272.051 94.3045H272.039Z" fill="black"/>
</svg>
