<svg width="97" height="103" viewBox="0 0 97 103" fill="none" xmlns="http://www.w3.org/2000/svg">
<path d="M6.07957 93.2807C6.11555 95.5529 7.58819 96.499 7.36071 98.7499C7.251 99.8433 6.76405 100.736 5.67052 100.719C4.70069 100.706 4.22978 99.8775 4.08409 98.893C3.90447 97.6522 3.71686 96.4008 3.687 95.1493C3.58323 90.7756 2.92268 86.4682 2.56945 82.1286C1.91696 74.1885 1.3203 66.2527 1.32624 58.272C1.32624 54.6628 1.38615 51.0537 1.3203 47.4488C1.12871 36.6834 3.52128 26.5137 6.94164 16.5789C7.8676 13.8945 9.19464 11.4492 11.1562 9.5144C13.7963 6.90473 16.7377 5.56144 20.2439 7.12683C21.2217 7.56248 21.6586 6.90473 22.0976 6.23841C24.0513 3.29772 26.7672 1.79213 29.8982 1.19203C32.5143 0.688019 35.1564 0.702961 37.7207 1.57644C40.1891 2.41784 41.995 4.36979 43.6154 6.4712C45.4772 8.88226 47.2413 11.3895 48.3628 14.3878C49.0213 16.1475 49.8734 17.8218 50.8333 19.9745C52.3159 16.3632 53.3715 13.2068 55.1556 10.4776C57.3706 7.08624 60.2003 4.75632 64.0217 4.1605C66.588 3.75686 68.7451 4.3954 70.4353 6.78938C72.0896 9.1364 73.1452 11.8059 74.1929 14.4989C74.3705 14.9495 74.5001 15.4278 74.7017 16.0386C75.5299 15.5453 75.6636 14.674 75.9869 13.9863C77.0644 11.6692 78.2178 9.41403 79.9899 7.64362C80.1016 7.53044 80.1954 7.39591 80.3132 7.29553C85.286 3.03077 88.419 3.7056 90.9493 9.49733C93.1165 14.454 94.18 19.7673 94.9444 25.1704C96.4968 36.1644 96.3472 47.2524 96.1536 58.3168C96.0199 65.943 95.3295 73.5457 94.643 81.142C94.2819 85.1419 94.208 89.1761 93.9745 93.1931C93.8807 94.782 93.7171 96.3666 93.5515 97.9448C93.4956 98.4766 93.2182 98.8909 92.6854 98.9314C92.1506 98.9677 91.7814 98.594 91.7196 98.0751C91.52 96.3687 90.9892 94.7649 91.6178 92.9134C92.4998 90.3186 92.2504 87.4591 92.4779 84.7148C92.9568 78.9551 93.3459 73.1869 93.745 67.4187C93.8608 65.7444 93.9386 64.0637 93.9465 62.3894C93.9845 53.4093 94.2259 44.4206 93.8209 35.4511C93.4497 27.2227 92.4559 19.0754 89.4766 11.4065C88.9957 10.17 88.4449 8.99331 87.6467 7.95969C86.8665 6.95169 85.9864 6.6933 84.827 7.01364C82.2907 7.72052 80.7063 9.74717 79.3453 11.9661C78.0741 14.044 77.1642 16.3718 76.2722 18.6889C75.8192 19.872 75.7314 21.0807 75.9569 22.3749C77.8607 33.3177 78.0662 44.4078 77.6471 55.4722C77.0804 70.4149 74.9512 85.1654 72.3311 99.8241C72.2732 100.151 72.1894 100.475 72.0896 100.792C71.8062 101.699 71.443 102.581 70.4034 102.477C69.4794 102.387 69.2539 101.507 69.0683 100.683C68.0905 96.3581 67.6535 91.9352 67.2964 87.5082C66.6597 79.5659 66.2866 71.6066 66.4662 63.6345C66.6378 56.0083 66.7216 48.3629 68.1803 40.8584C69.3158 35.0325 70.6468 29.2643 72.5007 23.6669C73.241 21.4374 73.225 19.3061 72.7162 17.021C72.1255 14.3665 71.0978 11.9575 69.8386 9.6703C68.0247 6.36869 66.1369 5.62977 62.7645 6.72959C60.4497 7.48132 58.5759 8.97837 57.1571 11.1524C54.96 14.5117 53.5591 18.3087 52.3 22.1827C51.9467 23.274 52.1264 24.3162 52.4536 25.3754C55.0637 33.8729 56.0575 42.6416 56.2311 51.5961C56.3309 56.7942 56.4487 61.9943 56.4806 67.1945C56.5344 75.6984 55.6445 84.0998 54.3174 92.4563C54.1498 93.5263 53.8664 94.5813 53.5671 95.6149C53.2957 96.5417 52.757 97.2593 51.815 97.334C50.8272 97.4152 50.3024 96.6741 49.9852 95.775C49.5182 94.4488 49.0532 93.1141 48.714 91.7409C47.1814 85.5733 46.5449 79.2413 45.9901 72.8901C45.3336 65.3557 45.6489 57.8022 45.5311 50.2529C45.4074 42.27 46.6267 34.5307 48.8557 27.0049C49.7118 24.1218 49.4963 21.6702 48.2869 19.0647C46.5569 15.3445 45.0782 11.4727 42.5398 8.28644C41.9891 7.59664 41.4562 6.90686 40.8436 6.27899C36.669 1.98005 31.9476 2.50968 27.1264 4.37833C25.4541 5.02327 24.2528 6.47974 23.2491 8.10279C22.7203 8.95702 22.6804 9.8027 23.2251 10.6698C26.9708 16.6131 28.17 23.5538 29.4332 30.4645C31.5345 41.9241 31.2152 53.5352 30.7004 65.0845C30.3133 73.787 28.617 82.3636 26.879 90.876C26.6933 91.7729 26.4339 92.655 26.1646 93.5263C25.8333 94.6026 25.3105 95.5594 24.183 95.6747C23.0675 95.7921 22.393 94.9571 21.8483 94.0004C20.8744 92.2919 20.1121 90.4596 19.5015 88.5674C16.2428 78.4832 14.3969 68.0701 13.4849 57.4113C12.8824 50.3682 13.0879 43.3272 13.1956 36.284C13.2715 31.3828 14.347 26.6482 15.5862 21.9798C16.5262 18.4412 17.7135 14.9943 19.1502 11.6543C20.0383 9.587 19.4655 8.72209 17.3862 8.76268C15.5604 8.79899 14.0577 9.69805 12.7327 11.0221C11.1283 12.6238 10.0088 14.6313 9.23656 16.8245C5.912 26.2574 3.56125 35.9252 3.67699 46.176C3.74886 52.5529 3.61708 58.9383 3.83658 65.3109C4.07807 72.3455 4.44326 78.575 5.32925 85.5584M23.8098 93.2807C24.5801 92.5076 24.6519 91.7345 24.8096 91.0212C26.6734 82.5408 28.2798 73.9622 28.7308 65.2724C29.3254 53.736 29.4811 42.1419 27.4157 30.6973C26.436 25.2644 25.3384 19.872 23.1274 14.8576C22.6863 13.8561 22.3591 12.6986 21.3074 12.2116C20.5452 13.0638 20.2658 14.0397 19.9305 14.958C17.6038 21.3477 15.72 27.8634 15.3369 34.819C14.7541 45.4756 14.8979 56.0916 16.4942 66.6435C17.5579 73.6781 18.9328 80.6294 21.1518 87.3395C21.8223 89.3726 22.5406 91.38 23.8098 93.2807V93.2807ZM50.8731 27.2163C50.5938 28.0769 50.4501 28.4571 50.3444 28.8479C48.5224 35.7245 47.5945 42.7335 47.5028 49.9176C47.351 61.6783 47.4927 73.4069 49.3885 85.0181C49.9073 88.1852 50.3463 91.3992 51.7511 94.5983C51.9528 93.994 52.0905 93.6928 52.1503 93.3746C53.1241 88.1125 53.8765 82.7971 54.0999 77.4367C54.495 68.1299 54.2775 58.8102 54.2057 49.499C54.1738 45.4756 53.8844 41.4478 53.168 37.4949C52.5714 34.2253 52.2221 30.8767 50.8731 27.2163V27.2163ZM74.3785 25.3327C74.0273 25.8666 73.9015 25.9819 73.8616 26.1293C70.7965 36.7111 68.4597 47.436 68.6832 58.6756C68.7391 61.612 68.7132 64.5528 68.6633 67.487C68.5256 75.8884 68.9107 84.2621 69.7369 92.608C69.8826 94.0644 70.1499 95.5017 70.3595 96.9475C70.5151 96.924 70.6707 96.9026 70.8244 96.8834C74.985 73.3642 77.4217 49.7382 74.3785 25.3327V25.3327Z" stroke="#070708" stroke-miterlimit="1.3445"/>
</svg>
