<svg width="432" height="64" viewBox="0 0 432 64" fill="none" xmlns="http://www.w3.org/2000/svg">
<path d="M0 17.2843H7.005V23.742H7.17952C9.94759 19.3782 14.6984 16.2374 20.3218 16.2374C25.9452 16.2374 30.09 19.0308 31.9903 24.2655H32.1648C35.0202 19.1189 40.3769 16.2374 45.821 16.2374C53.7761 16.2374 59.3947 21.384 59.3947 30.7184V62.3857H52.3897V31.0657C52.3897 25.4837 48.6714 22.1668 44.1776 22.1668C38.3845 22.1668 33.1974 27.2253 33.1974 34.2946V62.3857H26.1972V31.0657C26.1972 25.4837 23.085 22.1668 18.5039 22.1668C13.055 22.1668 7.005 27.2253 7.005 34.2946V62.3857H0V17.2794V17.2843Z" fill="black"/>
<path d="M66.2314 39.9525C66.2314 26.8725 74.5341 16.2374 87.8513 16.2374C101.169 16.2374 109.389 26.8774 109.389 39.9525C109.389 53.0276 101.261 63.6676 87.8513 63.6676C74.4419 63.6676 66.2314 53.0276 66.2314 39.9525ZM102.206 39.9525C102.206 30.0117 97.3615 22.0757 87.8513 22.0757C78.3411 22.0757 73.409 30.0117 73.409 39.9525C73.409 49.8933 78.3362 57.7413 87.8513 57.7413C97.3664 57.7413 102.206 49.8933 102.206 39.9525Z" fill="black"/>
<path d="M111.103 17.3056H118.625L127.878 45.9036C129.178 49.9129 130.817 55.4086 130.817 55.4086H130.992C130.992 55.4086 132.636 49.8298 133.931 45.9036L143.358 17.3056H150.623L134.537 62.3857H126.753L111.098 17.3056H111.103Z" fill="black"/>
<path d="M155.537 0H162.588V8.72353H155.537V0ZM155.537 17.2758H162.588V62.3858H155.537V17.2758Z" fill="black"/>
<path d="M169.638 40.0798C169.638 25.0284 178.195 16.2783 189.264 16.2783C195.576 16.2783 200.414 19.4289 203.27 23.7181H203.44V0H210.445V62.571H203.44V57.0549H203.27C199.896 61.4324 195.746 63.8813 189.438 63.8813C177.25 63.8813 169.638 54.6061 169.638 40.0798ZM203.876 40.1681C203.876 29.666 198.863 22.3145 189.608 22.3145C181.138 22.3145 176.813 30.0144 176.813 40.1681C176.813 50.3218 181.138 57.9334 189.695 57.9334C199.639 57.9334 203.876 50.4052 203.876 40.1681Z" fill="black"/>
<path d="M247.423 56.2787H247.336C244.65 59.778 240.06 63.454 232.44 63.454C223.95 63.454 217.282 59.4295 217.282 50.8505C217.282 40.1709 225.597 37.9869 236.767 36.2348C243.091 35.2728 247.506 34.6594 247.506 29.7564C247.506 24.8534 243.868 21.7908 237.457 21.7908C230.181 21.7908 226.544 24.9417 226.286 31.7686H219.53C219.788 23.0178 225.504 16.451 237.374 16.451C246.899 16.451 253.917 20.0387 253.917 30.8066V52.3376C253.917 56.0136 254.781 58.0259 258.681 57.1523H258.943V62.3154C258.079 62.6638 256.952 63.0172 255.131 63.0172C250.541 63.0172 248.113 60.9166 247.423 56.2787ZM247.593 45.8641V38.1636C245.257 39.6507 241.187 40.7893 237.374 41.4912C230.356 42.8016 224.727 44.0285 224.727 50.6787C224.727 56.7204 229.404 58.0308 233.994 58.0308C243.348 58.0308 247.588 51.1155 247.588 45.8641H247.593Z" fill="black"/>
<path d="M261.294 47.89H268.501C269.455 55.751 274.666 57.9354 281.351 57.9354C288.734 57.9354 291.772 54.7029 291.772 50.5103C291.772 45.446 288.3 44.1334 280.051 42.3898C271.194 40.5531 263.29 38.7214 263.29 28.8523C263.29 21.3391 269.022 16.451 279.443 16.451C290.56 16.451 296.028 21.7798 297.07 30.6008H289.863C289.167 24.6597 285.958 22.0394 279.267 22.0394C272.577 22.0394 270.239 24.9193 270.239 28.5045C270.239 33.3974 274.583 34.3574 282.311 35.9296C291.339 37.7614 298.896 39.7744 298.896 50.1675C298.896 59.2529 291.514 63.8813 281.181 63.8813C268.851 63.8813 261.99 58.0284 261.294 47.8998V47.89Z" fill="black"/>
<path d="M304.024 49.7804H316.629V62.3857H304.024V49.7804Z" fill="black"/>
<path d="M323.68 0H335.43V62.3858H323.68V0Z" fill="black"/>
<path d="M369.932 57.428H369.758C367.506 60.833 364.308 63.454 356.689 63.454C347.6 63.454 341.199 58.6479 341.199 49.7362C341.199 39.8643 349.162 36.7191 359.023 35.3228C366.38 34.2744 369.753 33.662 369.753 30.257C369.753 26.8521 367.244 24.9267 362.313 24.9267C356.776 24.9267 354.093 26.9354 353.743 31.2173H343.271C343.615 23.354 349.415 16.451 362.396 16.451C375.377 16.451 381.089 22.482 381.089 32.9614V55.7623C381.089 59.1721 381.608 61.1808 382.647 61.9647V62.4007H371.311C370.617 61.5286 370.185 59.4318 369.928 57.4231L369.932 57.428ZM370.02 46.5959V39.8692C367.943 41.094 364.74 41.7897 361.799 42.4903C355.655 43.8866 352.627 45.2878 352.627 49.4815C352.627 53.6752 355.398 55.1597 359.552 55.1597C366.302 55.1597 370.025 50.966 370.025 46.5959H370.02Z" fill="black"/>
<path d="M399.942 56.9628H399.767V62.5614H388.416V0H400.2V23.1011H400.457C402.887 19.3376 406.697 16.4524 412.849 16.4524C424.026 16.4524 432 26.1678 432 40.1669C432 54.1659 424.376 63.8813 413.194 63.8813C406.954 63.8813 402.537 61.1679 399.937 56.9677L399.942 56.9628ZM420.046 40.162C420.046 31.8499 416.751 26.0746 410.167 26.0746C402.712 26.0746 399.942 32.1099 399.942 40.4269C399.942 48.7439 404.014 53.9009 410.604 53.9009C416.668 53.9009 420.051 48.8273 420.051 40.162H420.046Z" fill="black"/>
</svg>
