<svg width="573" height="573" viewBox="0 0 573 573" fill="none" xmlns="http://www.w3.org/2000/svg">
<g id="Vector">
<path d="M29.6954 520.183C29.8954 532.963 38.7554 538.273 37.3854 550.913C36.7254 557.063 33.7954 562.073 27.2254 561.983C21.3954 561.903 18.5654 557.253 17.6954 551.733C16.6054 544.763 15.4854 537.723 15.3054 530.693C14.6754 506.143 10.7154 481.933 8.56539 457.543C4.65539 412.953 1.07539 368.363 1.09539 323.553C1.09539 303.283 1.45539 283.003 1.06539 262.733C-0.094605 202.273 14.2954 145.133 34.8654 89.3228C40.4254 74.2328 48.4154 60.5128 60.1954 49.6328C76.0754 34.9828 93.7454 27.4228 114.825 36.2228C120.705 38.6728 123.315 34.9828 125.975 31.2428C137.715 14.7228 154.035 6.25279 172.865 2.87279C188.575 0.0527861 204.465 0.142799 219.885 5.0428C234.735 9.7628 245.585 20.7328 255.325 32.5428C266.515 46.1028 277.115 60.1728 283.865 77.0128C287.825 86.9028 292.935 96.3028 298.715 108.403C307.635 88.1128 313.975 70.3828 324.705 55.0428C338.025 35.9928 355.025 22.9128 378.005 19.5528C393.415 17.3028 406.395 20.8828 416.565 34.3428C426.515 47.5128 432.855 62.5228 439.155 77.6428C440.215 80.1828 440.995 82.8528 442.195 86.2928C447.185 83.5128 447.995 78.6228 449.925 74.7728C456.425 61.7528 463.345 49.0928 474.005 39.1428C474.675 38.5128 475.245 37.7528 475.955 37.1828C505.825 13.2228 524.675 17.0228 539.885 49.5528C552.905 77.3928 559.305 107.253 563.895 137.593C573.245 199.353 572.335 261.633 571.175 323.793C570.375 366.623 566.215 409.343 562.095 452.013C559.915 474.493 559.485 497.153 558.075 519.713C557.515 528.633 556.525 537.523 555.525 546.403C555.185 549.393 553.535 551.713 550.315 551.923C547.105 552.133 544.885 550.043 544.515 547.123C543.305 537.543 540.115 528.523 543.905 518.123C549.205 503.563 547.705 487.493 549.075 472.073C551.945 439.713 554.285 407.303 556.685 374.893C557.385 365.503 557.855 356.063 557.895 346.653C558.125 296.213 559.565 245.713 557.135 195.333C554.905 149.113 548.945 103.343 531.015 60.2628C528.125 53.3128 524.835 46.6928 520.015 40.8928C515.325 35.2428 510.035 33.7828 503.065 35.5928C487.825 39.5528 478.285 50.9428 470.105 63.4128C462.465 75.0728 457.005 88.1528 451.645 101.163C448.905 107.813 448.375 114.603 449.735 121.873C461.195 183.353 462.425 245.633 459.905 307.793C456.505 391.733 443.685 474.593 427.955 556.943C427.605 558.783 427.095 560.613 426.505 562.383C424.795 567.473 422.615 572.423 416.365 571.853C410.805 571.343 409.455 566.393 408.345 561.773C402.455 537.473 399.825 512.633 397.695 487.763C393.875 443.153 391.625 398.443 392.705 353.653C393.735 310.813 394.235 267.883 403.015 225.713C409.825 192.993 417.845 160.573 428.985 129.143C433.425 116.613 433.335 104.643 430.275 91.8028C426.715 76.8928 420.545 63.3628 412.985 50.5228C402.075 31.9728 390.725 27.8228 370.455 33.9928C356.525 38.2328 345.275 46.6328 336.735 58.8328C323.535 77.7028 315.105 99.0428 307.535 120.813C305.405 126.933 306.495 132.793 308.455 138.753C324.145 186.483 330.135 235.733 331.165 286.043C331.765 315.253 332.475 344.443 332.665 373.663C332.985 421.443 327.635 468.643 319.665 515.573C318.645 521.583 316.955 527.493 315.145 533.313C313.515 538.523 310.285 542.553 304.615 542.983C298.675 543.433 295.515 539.273 293.615 534.223C290.815 526.773 288.025 519.273 285.975 511.573C276.765 476.923 272.935 441.353 269.605 405.683C265.645 363.343 267.555 320.903 266.845 278.513C266.095 233.673 273.425 190.183 286.835 147.913C291.975 131.723 290.685 117.933 283.405 103.313C273.005 82.4028 264.115 60.6528 248.845 42.7528C245.545 38.8828 242.335 35.0128 238.655 31.4728C213.565 7.34279 185.175 10.3028 156.185 20.7928C146.135 24.4328 138.905 32.6128 132.885 41.7228C129.705 46.5328 129.455 51.2728 132.735 56.1428C155.255 89.5328 162.455 128.523 170.065 167.333C182.685 231.703 180.765 296.943 177.675 361.813C175.345 410.703 165.155 458.873 154.695 506.703C153.595 511.743 152.025 516.693 150.405 521.593C148.405 527.643 145.265 533.013 138.495 533.673C131.775 534.323 127.725 529.633 124.455 524.263C118.605 514.673 114.025 504.373 110.345 493.743C90.7554 437.113 79.6654 378.603 74.1854 318.723C70.5554 279.153 71.7954 239.613 72.4454 200.043C72.9054 172.513 79.3654 145.903 86.8154 119.683C92.4654 99.8028 99.6154 80.4428 108.245 61.6828C113.585 50.0728 110.145 45.2128 97.6354 45.4428C86.6654 45.6528 77.6254 50.6828 69.6554 58.1328C60.0154 67.1428 53.2754 78.4028 48.6354 90.7328C28.6654 143.713 14.5354 198.023 15.2254 255.613C15.6554 291.443 14.8654 327.303 16.1854 363.093C17.6454 402.613 19.8354 437.623 25.1554 476.853M136.255 520.213C140.885 515.873 141.315 511.533 142.265 507.513C153.465 459.893 163.125 411.693 165.825 362.883C169.415 298.083 170.345 232.943 157.935 168.643C152.045 138.133 145.435 107.833 132.145 79.6728C129.485 74.0428 127.525 67.5428 121.195 64.7928C116.625 69.5928 114.945 75.0728 112.925 80.2428C98.9354 116.133 87.6054 152.723 85.3154 191.813C81.8054 251.663 82.6654 311.303 92.2654 370.573C98.6654 410.093 106.925 449.133 120.255 486.843C124.285 498.253 128.615 509.543 136.255 520.203V520.213ZM298.955 149.113C297.265 153.953 296.395 156.073 295.775 158.263C284.815 196.893 279.245 236.273 278.685 276.633C277.775 342.693 278.625 408.583 290.025 473.823C293.135 491.603 295.785 509.653 304.215 527.623C305.425 524.233 306.275 522.553 306.625 520.763C312.475 491.193 316.985 461.333 318.355 431.223C320.725 378.943 319.415 326.593 318.975 274.273C318.785 251.673 317.045 229.053 312.735 206.853C309.165 188.483 307.065 169.673 298.955 149.113ZM440.255 138.533C438.145 141.523 437.395 142.183 437.145 143.003C418.725 202.453 404.675 262.703 406.015 325.833C406.365 342.323 406.205 358.833 405.915 375.333C405.075 422.523 407.395 469.563 412.365 516.453C413.235 524.613 414.835 532.693 416.105 540.813C417.035 540.693 417.975 540.573 418.905 540.453C443.915 408.343 458.565 275.623 440.265 138.533H440.255Z" fill="black"/>
<path d="M29.6954 520.183C29.8954 532.963 38.7554 538.273 37.3854 550.913C36.7254 557.063 33.7954 562.073 27.2254 561.983C21.3954 561.903 18.5654 557.253 17.6954 551.733C16.6054 544.763 15.4854 537.723 15.3054 530.693C14.6754 506.143 10.7154 481.933 8.56539 457.543C4.65539 412.953 1.07539 368.363 1.09539 323.553C1.09539 303.283 1.45539 283.003 1.06539 262.733C-0.094605 202.273 14.2954 145.133 34.8654 89.3228C40.4254 74.2328 48.4154 60.5128 60.1954 49.6328C76.0754 34.9828 93.7454 27.4228 114.825 36.2228C120.705 38.6728 123.315 34.9828 125.975 31.2428C137.715 14.7228 154.035 6.25279 172.865 2.87279C188.575 0.0527861 204.465 0.142799 219.885 5.0428C234.735 9.7628 245.585 20.7328 255.325 32.5428C266.515 46.1028 277.115 60.1728 283.865 77.0128C287.825 86.9028 292.935 96.3028 298.715 108.403C307.635 88.1128 313.975 70.3828 324.705 55.0428C338.025 35.9928 355.025 22.9128 378.005 19.5528C393.415 17.3028 406.395 20.8828 416.565 34.3428C426.515 47.5128 432.855 62.5228 439.155 77.6428C440.215 80.1828 440.995 82.8528 442.195 86.2928C447.185 83.5128 447.995 78.6228 449.925 74.7728C456.425 61.7528 463.345 49.0928 474.005 39.1428C474.675 38.5128 475.245 37.7528 475.955 37.1828C505.825 13.2228 524.675 17.0228 539.885 49.5528C552.905 77.3928 559.305 107.253 563.895 137.593C573.245 199.353 572.335 261.633 571.175 323.793C570.375 366.623 566.215 409.343 562.095 452.013C559.915 474.493 559.485 497.153 558.075 519.713C557.515 528.633 556.525 537.523 555.525 546.403C555.185 549.393 553.535 551.713 550.315 551.923C547.105 552.133 544.885 550.043 544.515 547.123C543.305 537.543 540.115 528.523 543.905 518.123C549.205 503.563 547.705 487.493 549.075 472.073C551.945 439.713 554.285 407.303 556.685 374.893C557.385 365.503 557.855 356.063 557.895 346.653C558.125 296.213 559.565 245.713 557.135 195.333C554.905 149.113 548.945 103.343 531.015 60.2628C528.125 53.3128 524.835 46.6928 520.015 40.8928C515.325 35.2428 510.035 33.7828 503.065 35.5928C487.825 39.5528 478.285 50.9428 470.105 63.4128C462.465 75.0728 457.005 88.1528 451.645 101.163C448.905 107.813 448.375 114.603 449.735 121.873C461.195 183.353 462.425 245.633 459.905 307.793C456.505 391.733 443.685 474.593 427.955 556.943C427.605 558.783 427.095 560.613 426.505 562.383C424.795 567.473 422.615 572.423 416.365 571.853C410.805 571.343 409.455 566.393 408.345 561.773C402.455 537.473 399.825 512.633 397.695 487.763C393.875 443.153 391.625 398.443 392.705 353.653C393.735 310.813 394.235 267.883 403.015 225.713C409.825 192.993 417.845 160.573 428.985 129.143C433.425 116.613 433.335 104.643 430.275 91.8028C426.715 76.8928 420.545 63.3628 412.985 50.5228C402.075 31.9728 390.725 27.8228 370.455 33.9928C356.525 38.2328 345.275 46.6328 336.735 58.8328C323.535 77.7028 315.105 99.0428 307.535 120.813C305.405 126.933 306.495 132.793 308.455 138.753C324.145 186.483 330.135 235.733 331.165 286.043C331.765 315.253 332.475 344.443 332.665 373.663C332.985 421.443 327.635 468.643 319.665 515.573C318.645 521.583 316.955 527.493 315.145 533.313C313.515 538.523 310.285 542.553 304.615 542.983C298.675 543.433 295.515 539.273 293.615 534.223C290.815 526.773 288.025 519.273 285.975 511.573C276.765 476.923 272.935 441.353 269.605 405.683C265.645 363.343 267.555 320.903 266.845 278.513C266.095 233.673 273.425 190.183 286.835 147.913C291.975 131.723 290.685 117.933 283.405 103.313C273.005 82.4028 264.115 60.6528 248.845 42.7528C245.545 38.8828 242.335 35.0128 238.655 31.4728C213.565 7.34279 185.175 10.3028 156.185 20.7928C146.135 24.4328 138.905 32.6128 132.885 41.7228C129.705 46.5328 129.455 51.2728 132.735 56.1428C155.255 89.5328 162.455 128.523 170.065 167.333C182.685 231.703 180.765 296.943 177.675 361.813C175.345 410.703 165.155 458.873 154.695 506.703C153.595 511.743 152.025 516.693 150.405 521.593C148.405 527.643 145.265 533.013 138.495 533.673C131.775 534.323 127.725 529.633 124.455 524.263C118.605 514.673 114.025 504.373 110.345 493.743C90.7554 437.113 79.6654 378.603 74.1854 318.723C70.5554 279.153 71.7954 239.613 72.4454 200.043C72.9054 172.513 79.3654 145.903 86.8154 119.683C92.4654 99.8028 99.6154 80.4428 108.245 61.6828C113.585 50.0728 110.145 45.2128 97.6354 45.4428C86.6654 45.6528 77.6254 50.6828 69.6554 58.1328C60.0154 67.1428 53.2754 78.4028 48.6354 90.7328C28.6654 143.713 14.5354 198.023 15.2254 255.613C15.6554 291.443 14.8654 327.303 16.1854 363.093C17.6454 402.613 19.8354 437.623 25.1554 476.853M136.255 520.213C140.885 515.873 141.315 511.533 142.265 507.513C153.465 459.893 163.125 411.693 165.825 362.883C169.415 298.083 170.345 232.943 157.935 168.643C152.045 138.133 145.435 107.833 132.145 79.6728C129.485 74.0428 127.525 67.5428 121.195 64.7928C116.625 69.5928 114.945 75.0728 112.925 80.2428C98.9354 116.133 87.6054 152.723 85.3154 191.813C81.8054 251.663 82.6654 311.303 92.2654 370.573C98.6654 410.093 106.925 449.133 120.255 486.843C124.285 498.253 128.615 509.543 136.255 520.203V520.213ZM298.955 149.113C297.265 153.953 296.395 156.073 295.775 158.263C284.815 196.893 279.245 236.273 278.685 276.633C277.775 342.693 278.625 408.583 290.025 473.823C293.135 491.603 295.785 509.653 304.215 527.623C305.425 524.233 306.275 522.553 306.625 520.763C312.475 491.193 316.985 461.333 318.355 431.223C320.725 378.943 319.415 326.593 318.975 274.273C318.785 251.673 317.045 229.053 312.735 206.853C309.165 188.483 307.065 169.673 298.955 149.113V149.113ZM440.255 138.533C438.145 141.523 437.395 142.183 437.145 143.003C418.725 202.453 404.675 262.703 406.015 325.833C406.365 342.323 406.205 358.833 405.915 375.333C405.075 422.523 407.395 469.563 412.365 516.453C413.235 524.613 414.835 532.693 416.105 540.813C417.035 540.693 417.975 540.573 418.905 540.453C443.915 408.343 458.565 275.623 440.265 138.533H440.255Z" stroke="black" stroke-width="2" stroke-miterlimit="10"/>
</g>
</svg>
